<svg xmlns="http://www.w3.org/2000/svg" viewBox="0 0 600 500">
  <g stroke="#755538" stroke-width="5" stroke-linecap="round" stroke-linejoin="round">
    <path fill="#d5bd96" stroke="none" d="M263 64c67-50 155 4 190 89 24 58 39 148 78 186 20 20 50 16 60-1-4 62-55 81-108 68-32-8-48-35-57-73-23 54-64 82-118 82-80 0-132-58-125-137 6-70 24-171 80-214z"/>
    <path fill="#9b7951" stroke="none" d="M341 47c33-3 73 16 94 42 8 35-4 76-33 101-22 4-48-15-61-34-7-38-7-75 0-109z"/>
    <path fill="#f5ead8" stroke="none" d="M231 144c47-23 92 4 107 45-24 23-65 29-103 12-14-17-16-39-4-57z"/>
    <circle cx="244" cy="157" r="8" fill="#5a402d" stroke="none"/>
    <path fill="none" d="M209 135c-13-22-11-45 2-52m24 52c-10-27-5-52 13-61m-37 10 40-9"/>
    <ellipse cx="212" cy="119" rx="16" ry="27" fill="none"/>
    <ellipse cx="251" cy="111" rx="17" ry="30" fill="none"/>
    <path fill="#d99166" stroke="none" d="M303 237c34-21 67 4 69 44-12 40-36 67-75 69-32-21-39-60-18-90 6-9 14-17 24-23z"/>
    <path fill="#f5ead8" stroke="none" d="M271 274c-37 34-46 105-5 137 33 25 84 17 105-19 15-26 8-67-12-88-15 23-38 34-67 31-15-16-23-36-21-61z"/>
    <path fill="#8d5537" stroke="none" d="M361 310c39 2 66 29 67 65-12 30-38 44-72 38-17-25-15-76 5-103z"/>
    <path fill="#8d5537" stroke="none" d="M420 352c42 14 50-39 74-28 17 8-8 65-65 72z"/>
    <path fill="#d99166" stroke="none" d="M300 237l18-42 22 47z"/>
  </g>
</svg>
